# Blender v2.81 (sub 16) OBJ File: 'Crystal.blend'
# www.blender.org
mtllib Crystal.mtl
o Cylinder
v 0.000000 -1.000000 0.000000
v -0.000000 1.000000 0.000000
v 0.000000 -0.543411 -0.500000
v 0.000000 0.543411 -0.500000
v 0.433013 0.543411 -0.250000
v 0.433013 -0.543411 -0.250000
v 0.433013 0.543411 0.250000
v 0.433013 -0.543411 0.250000
v -0.000000 0.543411 0.500000
v -0.000000 -0.543411 0.500000
v -0.433013 0.543411 0.250000
v -0.433013 -0.543411 0.250000
v -0.433013 0.543411 -0.250000
v -0.433013 -0.543411 -0.250000
vt 0.166667 0.666667
vt -0.000000 0.666667
vt 0.000000 0.000000
vt 0.166667 0.833333
vt 0.333333 0.833333
vt 0.333333 0.666667
vt 0.500000 0.833333
vt 0.500000 0.666667
vt 0.666667 0.833333
vt 0.666667 0.666667
vt 0.833333 0.833333
vt 0.833333 0.666667
vt 1.000000 0.833333
vt 1.000000 0.666667
vt 0.000000 0.000000
vt -0.000000 0.833333
vn -0.3628 -0.6881 -0.6284
vn -0.5000 0.0000 -0.8660
vn -1.0000 0.0000 0.0000
vn -0.5000 0.0000 0.8660
vn 0.5000 0.0000 0.8660
vn 1.0000 0.0000 0.0000
vn 0.5000 0.0000 -0.8660
vn -0.3628 0.6881 0.6284
vn -0.7256 0.6881 0.0000
vn 0.3628 0.6881 0.6284
vn 0.7256 0.6881 0.0000
vn 0.3628 0.6881 -0.6284
vn -0.3628 0.6881 -0.6284
vn -0.7256 -0.6881 0.0000
vn -0.3628 -0.6881 0.6284
vn 0.3628 -0.6881 0.6284
vn 0.3628 -0.6881 -0.6284
vn 0.7256 -0.6881 -0.0000
usemtl None
s off
f 14/1/1 3/2/1 1/3/1
f 13/4/2 3/2/2 14/1/2
f 11/5/3 14/1/3 12/6/3
f 9/7/4 12/6/4 10/8/4
f 7/9/5 10/8/5 8/10/5
f 5/11/6 8/10/6 6/12/6
f 4/13/7 6/12/7 3/14/7
f 9/7/8 2/15/8 11/5/8
f 11/5/9 2/15/9 13/4/9
f 9/7/10 7/9/10 2/15/10
f 7/9/11 5/11/11 2/15/11
f 5/11/12 4/13/12 2/15/12
f 4/13/13 13/4/13 2/15/13
f 12/6/14 14/1/14 1/3/14
f 12/6/15 1/3/15 10/8/15
f 10/8/16 1/3/16 8/10/16
f 3/14/17 6/12/17 1/3/17
f 6/12/18 8/10/18 1/3/18
f 13/4/2 4/16/2 3/2/2
f 11/5/3 13/4/3 14/1/3
f 9/7/4 11/5/4 12/6/4
f 7/9/5 9/7/5 10/8/5
f 5/11/6 7/9/6 8/10/6
f 4/13/7 5/11/7 6/12/7
