# Blender v2.81 (sub 16) OBJ File: ''
# www.blender.org
v 0.345492 0.809017 -0.475528
v 0.559017 0.309017 -0.769421
v 0.559017 -0.309017 -0.769421
v 0.345492 -0.809017 -0.475528
v 0.559017 0.809017 -0.181636
v 0.904509 0.309017 -0.293893
v 0.904509 -0.309017 -0.293893
v 0.559017 -0.809017 -0.181636
v 0.559017 0.809017 0.181636
v 0.904509 0.309017 0.293893
v 0.904509 -0.309017 0.293893
v 0.559017 -0.809017 0.181636
v 0.345492 0.809017 0.475528
v 0.559017 0.309017 0.769421
v 0.559017 -0.309017 0.769421
v 0.345492 -0.809017 0.475528
v -0.000000 0.809017 0.587785
v 0.000000 0.309017 0.951057
v 0.000000 -0.309017 0.951057
v 0.000000 -0.809017 0.587785
v -0.000000 1.000000 0.000000
v -0.345492 0.809017 0.475528
v -0.559017 0.309017 0.769421
v -0.559017 -0.309017 0.769421
v -0.345491 -0.809017 0.475528
v -0.559017 0.809017 0.181636
v -0.904509 0.309017 0.293893
v -0.904508 -0.309017 0.293893
v -0.559017 -0.809017 0.181636
v 0.000000 -1.000000 0.000000
v -0.559017 0.809017 -0.181636
v -0.904509 0.309017 -0.293892
v -0.904509 -0.309017 -0.293892
v -0.559017 -0.809017 -0.181636
v -0.345492 0.809017 -0.475528
v -0.559017 0.309017 -0.769421
v -0.559017 -0.309017 -0.769421
v -0.345492 -0.809017 -0.475528
v -0.000000 0.809017 -0.587785
v -0.000000 0.309017 -0.951056
v -0.000000 -0.309017 -0.951056
v -0.000000 -0.809017 -0.587785
vt 0.650000 0.000000
vt 0.700000 0.200000
vt 0.600000 0.200000
vt 0.700000 0.400000
vt 0.600000 0.600000
vt 0.600000 0.400000
vt 0.700000 0.800000
vt 0.650000 1.000000
vt 0.600000 0.800000
vt 0.700000 0.600000
vt 0.550000 0.000000
vt 0.500000 0.200000
vt 0.500000 0.400000
vt 0.550000 1.000000
vt 0.500000 0.800000
vt 0.500000 0.600000
vt 0.450000 0.000000
vt 0.400000 0.200000
vt 0.400000 0.600000
vt 0.400000 0.400000
vt 0.450000 1.000000
vt 0.400000 0.800000
vt 0.350000 0.000000
vt 0.300000 0.200000
vt 0.300000 0.400000
vt 0.350000 1.000000
vt 0.300000 0.800000
vt 0.300000 0.600000
vt 0.250000 0.000000
vt 0.200000 0.200000
vt 0.200000 0.400000
vt 0.250000 1.000000
vt 0.200000 0.800000
vt 0.200000 0.600000
vt 0.150000 0.000000
vt 0.100000 0.200000
vt 0.100000 0.400000
vt 0.150000 1.000000
vt 0.100000 0.800000
vt 0.100000 0.600000
vt 0.050000 0.000000
vt 0.000000 0.200000
vt 0.000000 0.400000
vt 0.050000 1.000000
vt 0.000000 0.800000
vt 0.000000 0.600000
vt 0.950000 0.000000
vt 1.000000 0.200000
vt 0.900000 0.200000
vt 1.000000 0.600000
vt 0.900000 0.400000
vt 1.000000 0.400000
vt 1.000000 0.800000
vt 0.950000 1.000000
vt 0.900000 0.800000
vt 0.900000 0.600000
vt 0.850000 0.000000
vt 0.800000 0.200000
vt 0.800000 0.400000
vt 0.850000 1.000000
vt 0.800000 0.800000
vt 0.800000 0.600000
vt 0.750000 0.000000
vt 0.750000 1.000000
vn 0.0000 -1.0000 0.0000
vn 0.0000 -0.7804 -0.6252
vn 0.3675 -0.7804 -0.5058
vn 0.0000 -0.2925 -0.9563
vn 0.5621 0.2925 -0.7736
vn 0.5621 -0.2925 -0.7736
vn 0.0000 0.7804 -0.6252
vn 0.0000 1.0000 0.0000
vn 0.3675 0.7804 -0.5058
vn 0.0000 0.2925 -0.9563
vn 0.5946 -0.7804 -0.1932
vn 0.9095 -0.2925 -0.2955
vn 0.5946 0.7804 -0.1932
vn 0.9095 0.2925 -0.2955
vn 0.5946 -0.7804 0.1932
vn 0.9095 0.2925 0.2955
vn 0.9095 -0.2925 0.2955
vn 0.5946 0.7804 0.1932
vn 0.3675 -0.7804 0.5058
vn 0.5621 -0.2925 0.7736
vn 0.3675 0.7804 0.5058
vn 0.5621 0.2925 0.7736
vn 0.0000 -0.7804 0.6252
vn 0.0000 -0.2925 0.9563
vn 0.0000 0.7804 0.6252
vn 0.0000 0.2925 0.9563
vn -0.3675 -0.7804 0.5058
vn -0.5621 -0.2925 0.7736
vn -0.3675 0.7804 0.5058
vn -0.5621 0.2925 0.7736
vn -0.5946 -0.7804 0.1932
vn -0.9095 -0.2925 0.2955
vn -0.5946 0.7804 0.1932
vn -0.9095 0.2925 0.2955
vn -0.5946 -0.7804 -0.1932
vn -0.9095 -0.2925 -0.2955
vn -0.5946 0.7804 -0.1932
vn -0.9095 0.2925 -0.2955
vn -0.3675 -0.7804 -0.5058
vn -0.5621 -0.2925 -0.7736
vn -0.3675 0.7804 -0.5058
vn -0.5621 0.2925 -0.7736
s 1
f 30/1/1 42/2/2 4/3/3
f 41/4/4 2/5/5 3/6/6
f 39/7/7 21/8/8 1/9/9
f 41/4/4 4/3/3 42/2/2
f 39/7/7 2/5/5 40/10/10
f 30/11/1 4/3/3 8/12/11
f 2/5/5 7/13/12 3/6/6
f 1/9/9 21/14/8 5/15/13
f 3/6/6 8/12/11 4/3/3
f 1/9/9 6/16/14 2/5/5
f 30/17/1 8/12/11 12/18/15
f 7/13/12 10/19/16 11/20/17
f 5/15/13 21/21/8 9/22/18
f 8/12/11 11/20/17 12/18/15
f 5/15/13 10/19/16 6/16/14
f 30/23/1 12/18/15 16/24/19
f 10/19/16 15/25/20 11/20/17
f 9/22/18 21/26/8 13/27/21
f 11/20/17 16/24/19 12/18/15
f 9/22/18 14/28/22 10/19/16
f 30/29/1 16/24/19 20/30/23
f 14/28/22 19/31/24 15/25/20
f 13/27/21 21/32/8 17/33/25
f 16/24/19 19/31/24 20/30/23
f 13/27/21 18/34/26 14/28/22
f 30/35/1 20/30/23 25/36/27
f 18/34/26 24/37/28 19/31/24
f 17/33/25 21/38/8 22/39/29
f 19/31/24 25/36/27 20/30/23
f 17/33/25 23/40/30 18/34/26
f 30/41/1 25/36/27 29/42/31
f 23/40/30 28/43/32 24/37/28
f 22/39/29 21/44/8 26/45/33
f 25/36/27 28/43/32 29/42/31
f 22/39/29 27/46/34 23/40/30
f 30/47/1 29/48/31 34/49/35
f 27/50/34 33/51/36 28/52/32
f 26/53/33 21/54/8 31/55/37
f 29/48/31 33/51/36 34/49/35
f 26/53/33 32/56/38 27/50/34
f 30/57/1 34/49/35 38/58/39
f 32/56/38 37/59/40 33/51/36
f 31/55/37 21/60/8 35/61/41
f 34/49/35 37/59/40 38/58/39
f 32/56/38 35/61/41 36/62/42
f 30/63/1 38/58/39 42/2/2
f 36/62/42 41/4/4 37/59/40
f 35/61/41 21/64/8 39/7/7
f 37/59/40 42/2/2 38/58/39
f 36/62/42 39/7/7 40/10/10
f 41/4/4 40/10/10 2/5/5
f 41/4/4 3/6/6 4/3/3
f 39/7/7 1/9/9 2/5/5
f 2/5/5 6/16/14 7/13/12
f 3/6/6 7/13/12 8/12/11
f 1/9/9 5/15/13 6/16/14
f 7/13/12 6/16/14 10/19/16
f 8/12/11 7/13/12 11/20/17
f 5/15/13 9/22/18 10/19/16
f 10/19/16 14/28/22 15/25/20
f 11/20/17 15/25/20 16/24/19
f 9/22/18 13/27/21 14/28/22
f 14/28/22 18/34/26 19/31/24
f 16/24/19 15/25/20 19/31/24
f 13/27/21 17/33/25 18/34/26
f 18/34/26 23/40/30 24/37/28
f 19/31/24 24/37/28 25/36/27
f 17/33/25 22/39/29 23/40/30
f 23/40/30 27/46/34 28/43/32
f 25/36/27 24/37/28 28/43/32
f 22/39/29 26/45/33 27/46/34
f 27/50/34 32/56/38 33/51/36
f 29/48/31 28/52/32 33/51/36
f 26/53/33 31/55/37 32/56/38
f 32/56/38 36/62/42 37/59/40
f 34/49/35 33/51/36 37/59/40
f 32/56/38 31/55/37 35/61/41
f 36/62/42 40/10/10 41/4/4
f 37/59/40 41/4/4 42/2/2
f 36/62/42 35/61/41 39/7/7
