# Blender v2.81 (sub 16) OBJ File: 'Glass.blend'
# www.blender.org
o Straw_Cylinder.001
v 0.400459 -0.871705 -0.050000
v -0.838669 1.398597 -0.049857
v 0.417242 -0.862514 -0.046194
v -0.826545 1.413014 -0.044782
v 0.431469 -0.854722 -0.035355
v -0.816800 1.425022 -0.032890
v 0.440975 -0.849516 -0.019134
v -0.810917 1.432793 -0.015990
v 0.444313 -0.847687 0.000000
v -0.809792 1.435144 0.003344
v 0.440975 -0.849516 0.019134
v -0.813595 1.431716 0.022169
v 0.431469 -0.854722 0.035355
v -0.821749 1.423032 0.037619
v 0.417242 -0.862514 0.046194
v -0.833012 1.410413 0.047342
v 0.400459 -0.871705 0.050000
v -0.845668 1.395782 0.049857
v 0.383677 -0.880896 0.046194
v -0.857792 1.381364 0.044783
v 0.369450 -0.888688 0.035355
v -0.867537 1.369356 0.032890
v 0.359944 -0.893895 0.019134
v -0.873420 1.361585 0.015990
v 0.356606 -0.895723 0.000000
v -0.874546 1.359235 -0.003344
v 0.359944 -0.893895 -0.019134
v -0.870742 1.362662 -0.022169
v 0.369450 -0.888688 -0.035355
v -0.862588 1.371347 -0.037619
v 0.383677 -0.880896 -0.046194
v -0.851325 1.383965 -0.047342
v -1.677871 1.422196 -0.126259
v -1.678923 1.406379 -0.131717
v -1.677955 1.434807 -0.115213
v -1.679165 1.442294 -0.100261
v -1.681316 1.443516 -0.083680
v -1.684081 1.438287 -0.067992
v -1.687038 1.427403 -0.055588
v -1.689737 1.412521 -0.048355
v -1.691768 1.395907 -0.047394
v -1.692821 1.380090 -0.052852
v -1.692736 1.367478 -0.063898
v -1.691526 1.359992 -0.078849
v -1.689375 1.358770 -0.095431
v -1.686611 1.363999 -0.111118
v -1.683654 1.374883 -0.123523
v -1.680955 1.389765 -0.130756
vt 0.714384 0.216418
vt 0.736379 0.999983
vt 0.675701 1.000000
vt 0.764065 0.216908
vt 0.796926 0.999973
vt 0.815190 0.217311
vt 0.857583 0.999967
vt 0.868653 0.217560
vt 0.918127 0.999960
vt 0.978743 0.217440
vt 0.978743 0.999952
vt 0.008774 0.999005
vt 0.177209 0.217513
vt 0.069417 0.999079
vt 0.228351 0.217189
vt 0.129952 0.999155
vt 0.277571 0.216737
vt 0.190427 0.999237
vt 0.327060 0.216232
vt 0.251161 0.999327
vt 0.379381 0.215761
vt 0.311912 0.999422
vt 0.435338 0.215402
vt 0.372457 0.999519
vt 0.493948 0.215224
vt 0.433104 0.999616
vt 0.493696 0.999711
vt 0.553052 0.215265
vt 0.554324 0.999805
vt 0.821030 0.000484
vt 0.923719 0.217609
vt 0.610160 0.215515
vt 0.615108 0.999900
vt 0.663805 0.215924
vt 0.311672 0.001123
vt 0.353887 0.000683
vt 0.565032 0.000527
vt 0.735119 0.001195
vt 0.227116 0.001961
vt 0.269441 0.001569
vt 0.438373 0.000118
vt 0.480614 0.000095
vt 0.863854 0.000000
vt 0.396122 0.000326
vt 0.607285 0.000852
vt 0.778061 0.000934
vt 0.692306 0.001253
vt 0.522835 0.000247
vt 0.184608 0.002251
vt 0.649699 0.001122
vt 0.123695 0.217660
vn 0.1712 0.0935 -0.9808
vn 0.4873 0.2669 -0.8315
vn 0.7290 0.3998 -0.5556
vn 0.8598 0.4719 -0.1951
vn 0.8595 0.4724 0.1951
vn 0.7287 0.4004 0.5556
vn 0.4870 0.2674 0.8315
vn 0.1709 0.0940 0.9808
vn -0.1713 -0.0934 0.9808
vn -0.4876 -0.2662 0.8315
vn -0.7298 -0.3983 0.5556
vn -0.8610 -0.4698 0.1951
vn -0.8607 -0.4702 -0.1951
vn -0.7297 -0.3987 -0.5556
vn 0.0217 0.9923 -0.1219
vn -0.4874 -0.2666 -0.8315
vn -0.1711 -0.0938 -0.9808
vn -0.1096 -0.3177 0.9418
vn 0.0455 -0.8809 -0.4711
vn 0.0783 0.6687 -0.7394
vn -0.0981 0.4494 0.8879
vn -0.0076 -0.9973 0.0725
vn -0.0252 0.9497 0.3121
vn -0.0864 -0.6567 0.7492
vn 0.0717 -0.6481 -0.7581
vn 0.0518 0.9004 -0.4320
vn -0.1139 0.0712 0.9909
vn 0.0948 0.2587 -0.9613
vn 0.0175 -0.9843 -0.1757
vn -0.0661 0.7578 0.6491
vn -0.0497 -0.8947 0.4440
vn 0.0918 -0.2453 -0.9651
vn 0.2433 0.1336 -0.9607
vn 0.5600 0.3075 -0.7693
vn 0.7755 0.4260 -0.4659
vn 0.8712 0.4787 -0.1089
vn 0.8474 0.4652 0.2559
vn 0.7070 0.3880 0.5912
vn 0.4565 0.2503 0.8538
vn 0.1207 0.0659 0.9905
vn -0.2433 -0.1336 0.9607
vn -0.5604 -0.3070 0.7692
vn -0.7764 -0.4248 0.4656
vn -0.8722 -0.4768 0.1087
vn -0.8486 -0.4631 -0.2558
vn -0.7080 -0.3866 -0.5910
vn 0.0178 0.9973 -0.0712
vn -0.4571 -0.2497 -0.8536
vn -0.1207 -0.0658 -0.9905
vn -0.1107 -0.2459 0.9630
vn 0.0695 -0.7580 -0.6485
vn 0.0788 0.6571 -0.7497
vn -0.0780 0.6512 0.7548
vn -0.0121 -0.9925 0.1214
vn -0.0083 0.9841 0.1775
vn -0.0857 -0.6651 0.7418
vn 0.0911 -0.4486 -0.8891
vn 0.0526 0.8946 -0.4437
vn -0.1066 0.2574 0.9604
vn 0.0948 0.3191 -0.9430
vn 0.0356 -0.9499 -0.3104
vn -0.0423 0.8803 0.4725
vn -0.0485 -0.9010 0.4312
vn 0.0993 -0.0695 -0.9926
s off
f 2/1/1 3/2/1 1/3/1
f 4/4/2 5/5/2 3/2/2
f 6/6/3 7/7/3 5/5/3
f 8/8/4 9/9/4 7/7/4
f 9/9/5 12/10/5 11/11/5
f 11/12/6 14/13/6 13/14/6
f 13/14/7 16/15/7 15/16/7
f 15/16/8 18/17/8 17/18/8
f 17/18/9 20/19/9 19/20/9
f 19/20/10 22/21/10 21/22/10
f 21/22/11 24/23/11 23/24/11
f 23/24/12 26/25/12 25/26/12
f 26/25/13 27/27/13 25/26/13
f 28/28/14 29/29/14 27/27/14
f 8/8/15 37/30/15 10/31/15
f 30/32/16 31/33/16 29/29/16
f 32/34/17 1/3/17 31/33/17
f 20/19/18 41/35/18 42/36/18
f 28/28/19 47/37/19 30/32/19
f 4/4/20 35/38/20 6/6/20
f 16/15/21 39/39/21 40/40/21
f 26/25/22 44/41/22 45/42/22
f 12/10/23 37/30/23 38/43/23
f 22/21/24 42/36/24 43/44/24
f 30/32/25 48/45/25 32/34/25
f 6/6/26 36/46/26 8/8/26
f 18/17/27 40/40/27 41/35/27
f 2/1/28 33/47/28 4/4/28
f 26/25/29 46/48/29 28/28/29
f 14/13/30 38/49/30 39/39/30
f 24/23/31 43/44/31 44/41/31
f 32/34/32 34/50/32 2/1/32
f 2/1/33 4/4/33 3/2/33
f 4/4/34 6/6/34 5/5/34
f 6/6/35 8/8/35 7/7/35
f 8/8/36 10/31/36 9/9/36
f 9/9/37 10/31/37 12/10/37
f 11/12/38 12/51/38 14/13/38
f 13/14/39 14/13/39 16/15/39
f 15/16/40 16/15/40 18/17/40
f 17/18/41 18/17/41 20/19/41
f 19/20/42 20/19/42 22/21/42
f 21/22/43 22/21/43 24/23/43
f 23/24/44 24/23/44 26/25/44
f 26/25/45 28/28/45 27/27/45
f 28/28/46 30/32/46 29/29/46
f 8/8/47 36/46/47 37/30/47
f 30/32/48 32/34/48 31/33/48
f 32/34/49 2/1/49 1/3/49
f 20/19/50 18/17/50 41/35/50
f 28/28/51 46/48/51 47/37/51
f 4/4/52 33/47/52 35/38/52
f 16/15/53 14/13/53 39/39/53
f 26/25/54 24/23/54 44/41/54
f 12/10/55 10/31/55 37/30/55
f 22/21/56 20/19/56 42/36/56
f 30/32/57 47/37/57 48/45/57
f 6/6/58 35/38/58 36/46/58
f 18/17/59 16/15/59 40/40/59
f 2/1/60 34/50/60 33/47/60
f 26/25/61 45/42/61 46/48/61
f 14/13/62 12/51/62 38/49/62
f 24/23/63 22/21/63 43/44/63
f 32/34/64 48/45/64 34/50/64
