# Blender v2.81 (sub 16) OBJ File: 'Glass.blend'
# www.blender.org
o Straw_Cylinder.001
v 0.400459 -0.871705 -0.050000
v -0.838669 1.398597 -0.049857
v 0.417242 -0.862514 -0.046194
v -0.826545 1.413014 -0.044782
v 0.431469 -0.854722 -0.035355
v -0.816800 1.425022 -0.032890
v 0.440975 -0.849516 -0.019134
v -0.810917 1.432793 -0.015990
v 0.444313 -0.847687 0.000000
v -0.809792 1.435144 0.003344
v 0.440975 -0.849516 0.019134
v -0.813595 1.431716 0.022169
v 0.431469 -0.854722 0.035355
v -0.821749 1.423032 0.037619
v 0.417242 -0.862514 0.046194
v -0.833012 1.410413 0.047342
v 0.400459 -0.871705 0.050000
v -0.845668 1.395782 0.049857
v 0.383677 -0.880896 0.046194
v -0.857792 1.381364 0.044783
v 0.369450 -0.888688 0.035355
v -0.867537 1.369356 0.032890
v 0.359944 -0.893895 0.019134
v -0.873420 1.361585 0.015990
v 0.356606 -0.895723 0.000000
v -0.874546 1.359235 -0.003344
v 0.359944 -0.893895 -0.019134
v -0.870742 1.362662 -0.022169
v 0.369450 -0.888688 -0.035355
v -0.862588 1.371347 -0.037619
v 0.383677 -0.880896 -0.046194
v -0.851325 1.383965 -0.047342
v -1.676647 1.425641 -0.132266
v -1.677873 1.407236 -0.138617
v -1.676746 1.440317 -0.119412
v -1.678154 1.449029 -0.102014
v -1.680657 1.450451 -0.082718
v -1.683874 1.444366 -0.064463
v -1.687315 1.431701 -0.050029
v -1.690456 1.414384 -0.041612
v -1.692819 1.395050 -0.040494
v -1.694045 1.376645 -0.046845
v -1.693946 1.361969 -0.059698
v -1.692538 1.353257 -0.077097
v -1.690035 1.351835 -0.096393
v -1.686818 1.357920 -0.114647
v -1.683377 1.370585 -0.129082
v -1.680236 1.387902 -0.137499
vt 1.000000 1.000000
vt 0.937500 0.500000
vt 1.000000 0.500000
vt 0.937500 1.000000
vt 0.875000 0.500000
vt 0.875000 1.000000
vt 0.812500 0.500000
vt 0.812500 1.000000
vt 0.750000 0.500000
vt 0.687500 1.000000
vt 0.687500 0.500000
vt 0.625000 1.000000
vt 0.625000 0.500000
vt 0.562500 1.000000
vt 0.562500 0.500000
vt 0.500000 1.000000
vt 0.500000 0.500000
vt 0.437500 1.000000
vt 0.437500 0.500000
vt 0.375000 1.000000
vt 0.375000 0.500000
vt 0.312500 1.000000
vt 0.312500 0.500000
vt 0.250000 1.000000
vt 0.250000 0.500000
vt 0.187500 0.500000
vt 0.187500 1.000000
vt 0.125000 0.500000
vt 0.750000 1.000000
vt 0.750000 1.000000
vt 0.125000 1.000000
vt 0.062500 0.500000
vt 0.062500 1.000000
vt 0.000000 0.500000
vt 0.658156 0.471731
vt 0.971731 0.341844
vt 0.841844 0.028269
vt 0.080294 0.080294
vt 0.419706 0.080294
vt 0.419706 0.419706
vt 0.500000 1.000000
vt 0.437500 1.000000
vt 0.125000 1.000000
vt 0.875000 1.000000
vt 0.625000 1.000000
vt 0.562500 1.000000
vt 0.312500 1.000000
vt 0.250000 1.000000
vt 0.687500 1.000000
vt 0.375000 1.000000
vt 0.062500 1.000000
vt 0.812500 1.000000
vt 0.937500 1.000000
vt 0.187500 1.000000
vt 0.000000 1.000000
vt 0.000000 1.000000
vt 0.750000 0.490000
vt 0.841844 0.471731
vt 0.919706 0.419706
vt 0.990000 0.250000
vt 0.971731 0.158156
vt 0.919706 0.080294
vt 0.750000 0.010000
vt 0.658156 0.028269
vt 0.580294 0.080294
vt 0.528269 0.158156
vt 0.510000 0.250000
vt 0.528269 0.341844
vt 0.580294 0.419706
vt 0.341844 0.471731
vt 0.250000 0.490000
vt 0.158156 0.471731
vt 0.080294 0.419706
vt 0.028269 0.341844
vt 0.010000 0.250000
vt 0.028269 0.158156
vt 0.158156 0.028269
vt 0.250000 0.010000
vt 0.341844 0.028269
vt 0.471731 0.158156
vt 0.490000 0.250000
vt 0.471731 0.341844
vt 1.000000 1.000000
vn 0.1712 0.0935 -0.9808
vn 0.4873 0.2669 -0.8315
vn 0.7290 0.3998 -0.5556
vn 0.8598 0.4719 -0.1951
vn 0.8595 0.4724 0.1951
vn 0.7287 0.4004 0.5556
vn 0.4870 0.2674 0.8315
vn 0.1709 0.0940 0.9808
vn -0.1713 -0.0934 0.9808
vn -0.4876 -0.2662 0.8315
vn -0.7298 -0.3983 0.5556
vn -0.8610 -0.4698 0.1951
vn -0.8607 -0.4702 -0.1951
vn -0.7297 -0.3987 -0.5556
vn 0.0295 0.9921 -0.1223
vn -0.4874 -0.2666 -0.8315
vn -0.1711 -0.0938 -0.9808
vn 0.4804 -0.8771 -0.0000
vn -0.9843 0.1125 -0.1360
vn -0.1015 -0.3185 0.9425
vn 0.0530 -0.8822 -0.4679
vn 0.0865 0.6647 -0.7421
vn -0.0902 0.4485 0.8892
vn 0.0007 -0.9973 0.0736
vn -0.0174 0.9495 0.3134
vn -0.0781 -0.6571 0.7497
vn 0.0790 -0.6517 -0.7544
vn 0.0599 0.8988 -0.4342
vn -0.1058 0.0703 0.9919
vn 0.1028 0.2523 -0.9622
vn 0.0254 -0.9844 -0.1741
vn -0.0583 0.7572 0.6505
vn -0.0414 -0.8947 0.4447
vn 0.0992 -0.2514 -0.9628
vn 0.2433 0.1336 -0.9607
vn 0.5600 0.3075 -0.7693
vn 0.7755 0.4260 -0.4659
vn 0.8712 0.4787 -0.1089
vn 0.8474 0.4652 0.2559
vn 0.7070 0.3880 0.5912
vn 0.4565 0.2503 0.8538
vn 0.1207 0.0659 0.9905
vn -0.2433 -0.1336 0.9607
vn -0.5604 -0.3070 0.7692
vn -0.7764 -0.4248 0.4656
vn -0.8722 -0.4768 0.1087
vn -0.8486 -0.4631 -0.2558
vn -0.7080 -0.3866 -0.5910
vn 0.0256 0.9972 -0.0702
vn -0.4571 -0.2497 -0.8536
vn -0.1207 -0.0658 -0.9905
vn -0.9843 0.1124 -0.1360
vn -0.1024 -0.2526 0.9621
vn 0.0777 -0.7585 -0.6470
vn 0.0868 0.6567 -0.7491
vn -0.0704 0.6475 0.7588
vn -0.0036 -0.9927 0.1209
vn -0.0004 0.9838 0.1791
vn -0.0772 -0.6693 0.7390
vn 0.0993 -0.4495 -0.8877
vn 0.0605 0.8945 -0.4430
vn -0.0987 0.2510 0.9630
vn 0.1029 0.3183 -0.9424
vn 0.0439 -0.9501 -0.3090
vn -0.0346 0.8789 0.4758
vn -0.0400 -0.9025 0.4289
vn 0.1075 -0.0705 -0.9917
s off
f 2/1/1 3/2/1 1/3/1
f 4/4/2 5/5/2 3/2/2
f 6/6/3 7/7/3 5/5/3
f 8/8/4 9/9/4 7/7/4
f 9/9/5 12/10/5 11/11/5
f 11/11/6 14/12/6 13/13/6
f 13/13/7 16/14/7 15/15/7
f 15/15/8 18/16/8 17/17/8
f 17/17/9 20/18/9 19/19/9
f 19/19/10 22/20/10 21/21/10
f 21/21/11 24/22/11 23/23/11
f 23/23/12 26/24/12 25/25/12
f 26/24/13 27/26/13 25/25/13
f 28/27/14 29/28/14 27/26/14
f 8/8/15 37/29/15 10/30/15
f 30/31/16 31/32/16 29/28/16
f 32/33/17 1/34/17 31/32/17
f 31/35/18 7/36/18 15/37/18
f 43/38/19 39/39/19 35/40/19
f 20/18/20 41/41/20 42/42/20
f 28/27/21 47/43/21 30/31/21
f 4/4/22 35/44/22 6/6/22
f 16/14/23 39/45/23 40/46/23
f 26/24/24 44/47/24 45/48/24
f 12/10/25 37/29/25 38/49/25
f 22/20/26 42/42/26 43/50/26
f 30/31/27 48/51/27 32/33/27
f 6/6/28 36/52/28 8/8/28
f 18/16/29 40/46/29 41/41/29
f 2/1/30 33/53/30 4/4/30
f 26/24/31 46/54/31 28/27/31
f 14/12/32 38/49/32 39/45/32
f 24/22/33 43/50/33 44/47/33
f 32/33/34 34/55/34 2/56/34
f 2/1/35 4/4/35 3/2/35
f 4/4/36 6/6/36 5/5/36
f 6/6/37 8/8/37 7/7/37
f 8/8/38 10/30/38 9/9/38
f 9/9/39 10/30/39 12/10/39
f 11/11/40 12/10/40 14/12/40
f 13/13/41 14/12/41 16/14/41
f 15/15/42 16/14/42 18/16/42
f 17/17/43 18/16/43 20/18/43
f 19/19/44 20/18/44 22/20/44
f 21/21/45 22/20/45 24/22/45
f 23/23/46 24/22/46 26/24/46
f 26/24/47 28/27/47 27/26/47
f 28/27/48 30/31/48 29/28/48
f 8/8/49 36/52/49 37/29/49
f 30/31/50 32/33/50 31/32/50
f 32/33/51 2/56/51 1/34/51
f 31/35/18 1/57/18 3/58/18
f 3/58/18 5/59/18 7/36/18
f 7/36/18 9/60/18 11/61/18
f 11/61/18 13/62/18 15/37/18
f 15/37/18 17/63/18 19/64/18
f 19/64/18 21/65/18 15/37/18
f 21/65/18 23/66/18 15/37/18
f 23/66/18 25/67/18 27/68/18
f 27/68/18 29/69/18 31/35/18
f 31/35/18 3/58/18 7/36/18
f 7/36/18 11/61/18 15/37/18
f 23/66/18 27/68/18 15/37/18
f 27/68/18 31/35/18 15/37/18
f 35/40/19 33/70/19 34/71/19
f 34/71/52 48/72/52 35/40/52
f 48/72/19 47/73/19 35/40/19
f 47/73/19 46/74/19 45/75/19
f 45/75/19 44/76/19 43/38/19
f 43/38/52 42/77/52 41/78/52
f 41/78/19 40/79/19 43/38/19
f 40/79/19 39/39/19 43/38/19
f 39/39/52 38/80/52 37/81/52
f 37/81/19 36/82/19 39/39/19
f 36/82/19 35/40/19 39/39/19
f 47/73/19 45/75/19 35/40/19
f 45/75/19 43/38/19 35/40/19
f 20/18/53 18/16/53 41/41/53
f 28/27/54 46/54/54 47/43/54
f 4/4/55 33/53/55 35/44/55
f 16/14/56 14/12/56 39/45/56
f 26/24/57 24/22/57 44/47/57
f 12/10/58 10/30/58 37/29/58
f 22/20/59 20/18/59 42/42/59
f 30/31/60 47/43/60 48/51/60
f 6/6/61 35/44/61 36/52/61
f 18/16/62 16/14/62 40/46/62
f 2/1/63 34/83/63 33/53/63
f 26/24/64 45/48/64 46/54/64
f 14/12/65 12/10/65 38/49/65
f 24/22/66 22/20/66 43/50/66
f 32/33/67 48/51/67 34/55/67
